<?xml version="1.0" standalone="no"?>
<!DOCTYPE svg PUBLIC "-//W3C//DTD SVG 20010904//EN"
 "http://www.w3.org/TR/2001/REC-SVG-20010904/DTD/svg10.dtd">
<svg version="1.0" xmlns="http://www.w3.org/2000/svg"
 width="1024.000000pt" height="1024.000000pt" viewBox="0 0 1024.000000 1024.000000"
 preserveAspectRatio="xMidYMid meet">
<metadata>
Created by potrace 1.14, written by Peter Selinger 2001-2017
</metadata>
<g transform="translate(0.000000,1024.000000) scale(0.100000,-0.100000)"
fill="#000000" stroke="none">
<path d="M5007 5232 l-5007 -5007 0 -113 0 -112 118 0 117 0 5003 5003 5002
5002 0 118 0 117 -113 0 -112 0 -5008 -5008z"/>
<path d="M5085 8474 c-16 -2 -73 -9 -125 -15 -545 -62 -1085 -327 -1489 -730
-403 -404 -651 -908 -733 -1489 -17 -124 -17 -516 0 -635 43 -301 120 -553
247 -810 120 -244 243 -425 423 -620 l63 -69 1811 1812 1812 1811 -69 63
c-196 180 -376 304 -620 423 -251 124 -482 196 -765 240 -100 16 -486 29 -555
19z"/>
<path d="M4955 4319 l-1810 -1810 60 -55 c407 -371 859 -588 1395 -671 164
-25 557 -25 725 1 375 57 734 194 1036 395 172 114 273 196 406 329 257 256
466 578 593 917 52 136 112 371 136 530 26 168 26 561 1 725 -71 460 -258 893
-530 1230 -76 94 -188 220 -196 220 -3 0 -821 -815 -1816 -1811z"/>
</g>
</svg>
