<?xml version="1.0" standalone="no"?>
<!DOCTYPE svg PUBLIC "-//W3C//DTD SVG 20010904//EN"
 "http://www.w3.org/TR/2001/REC-SVG-20010904/DTD/svg10.dtd">
<svg version="1.0" xmlns="http://www.w3.org/2000/svg"
 width="320.000000pt" height="320.000000pt" viewBox="0 0 320.000000 320.000000"
 preserveAspectRatio="xMidYMid meet">
<metadata>
Created by potrace 1.14, written by Peter Selinger 2001-2017
</metadata>
<g transform="translate(0.000000,320.000000) scale(0.100000,-0.100000)"
fill="#000000" stroke="none">
<path d="M1390 3184 c-149 -22 -220 -40 -340 -84 -88 -32 -256 -114 -281 -136
-8 -8 -20 -14 -25 -14 -5 0 -28 -15 -51 -33 -22 -17 -53 -41 -67 -51 -49 -36
-100 -81 -169 -151 -240 -244 -395 -563 -443 -915 -10 -73 -12 -344 -2 -395
32 -178 58 -283 85 -345 3 -8 7 -17 8 -20 12 -45 81 -192 115 -245 11 -16 27
-43 36 -60 31 -55 143 -192 221 -270 70 -70 235 -202 273 -219 8 -3 29 -15 45
-26 85 -54 313 -149 395 -164 14 -2 32 -7 41 -11 56 -22 249 -41 395 -39 243
3 452 51 664 154 47 23 94 47 105 53 11 7 41 25 67 41 27 15 48 32 48 37 0 5
5 9 11 9 26 0 195 151 298 265 23 26 111 144 111 149 0 3 17 31 38 63 75 115
162 325 186 448 3 17 13 66 22 110 23 118 25 381 3 509 -23 137 -61 276 -82
304 -5 6 -7 12 -4 12 11 0 -74 184 -113 245 -11 17 -27 44 -36 60 -30 54 -142
192 -216 265 -77 77 -229 200 -246 200 -6 0 -12 4 -14 8 -6 15 -80 52 -90 46
-6 -4 -8 -2 -4 4 12 20 -244 128 -384 162 -174 43 -441 58 -600 34z"/>
</g>
</svg>
