<?xml version="1.0" standalone="no"?>
<!DOCTYPE svg PUBLIC "-//W3C//DTD SVG 20010904//EN"
 "http://www.w3.org/TR/2001/REC-SVG-20010904/DTD/svg10.dtd">
<svg version="1.0" xmlns="http://www.w3.org/2000/svg"
 width="512.000000pt" height="512.000000pt" viewBox="0 0 512.000000 512.000000"
 preserveAspectRatio="xMidYMid meet">
<metadata>
Created by potrace 1.14, written by Peter Selinger 2001-2017
</metadata>
<g transform="translate(0.000000,512.000000) scale(0.100000,-0.100000)"
fill="#000000" stroke="none">
<path d="M937 4177 l-608 -611 503 -503 503 -503 -499 -499 c-274 -274 -498
-502 -498 -507 1 -10 1202 -1215 1214 -1217 4 -1 232 223 508 498 l500 500
503 -503 503 -503 612 613 613 612 -503 503 -503 503 500 500 c275 276 501
502 503 504 3 4 -1215 1221 -1222 1221 -3 0 -231 -225 -506 -500 l-500 -500
-503 503 c-276 276 -504 501 -507 501 -3 -1 -279 -277 -613 -612z m3283 -651
c0 -2 -8 -10 -17 -17 -16 -13 -17 -12 -4 4 13 16 21 21 21 13z"/>
</g>
</svg>
